<mxfile host="app.diagrams.net" modified="2023-09-26T15:15:21.565Z" agent="Mozilla/5.0 (Macintosh; Intel Mac OS X 10_15_7) AppleWebKit/537.36 (KHTML, like Gecko) Chrome/114.0.0.0 Safari/537.36" version="21.7.5" etag="wBfTfs6bRw4Es2sKBLVt" type="github">
  <diagram name="Page-1" id="AOEZhsFo3bDTTdRkhpfu">
    <mxGraphModel>
      <root>
        <mxCell id="0" />
        <mxCell id="1" parent="0" />
      </root>
    </mxGraphModel>
  </diagram>
</mxfile>
